<svg xmlns="http://www.w3.org/2000/svg" viewBox="0 0 1915.8 272.76"><defs><style>.cls-1{fill:#a62336;}.cls-2{fill:#005b9d;}</style></defs><title>investopedia_logo-pos_SVG</title><g id="Layer_2" data-name="Layer 2"><g id="Layer_1-2" data-name="Layer 1"><path d="M424.07,214.41H409.9l-18-1.12-18,1.13h-14l-1.12-1.12v-3.37l1.13-1.12h10.13l6.75-2.25,2.25-6.75V71.54l-2.25-6.75-6.75-2.25H360.4l-1.12-1.12V58l1.13-1.12h13.5l18,1.13,18-1.12h13.5L424.52,58v3.38l-1.12,1.13h-9.67L407,64.79l-2.25,6.75V199.79l2.25,6.75,6.75,2.25h10.35l1.13,1.13v3.38Z"/><path d="M587.87,62.54H582.7l-6.75,2.25-4.5,4.5-2.25,9-1.35,13.5V214.41l-1.12,1.13H558.4l-2.25-1.12-90-135V179.54l1.8,13.5,2.25,9,4.5,4.5,6.75,2.25h6.08l1.13,1.13v3.38l-1.12,1.13H477.4l-15.08-1.12L447,214.41h-9.45l-1.12-1.12v-3.37l1.13-1.12h5.63l6.75-2.25,4.5-4.5,2.25-9,.9-13.5V78.29l-2.25-9-4.5-4.5-9-2.25h-5l-1.12-1.12V58l1.13-1.12h13.5L463.9,58l9-1.12h7.88l3.38,3.38,75.38,113.17V91.79l-1.12-13.5-2.25-9-4.5-4.5-6.75-2.25h-6.08l-1.12-1.12V58l1.13-1.12h9.45L563.57,58l15.08-1.12h9.23L589,58v3.38Z"/><path d="M737.27,62.54h-7.2l-6.75,3.37-5.62,5.63-3.6,6.75L668.64,214.41l-2.25,1.8h-9.67l-2.25-1.8L608.34,76,605.64,70l-4.5-4.5-6.75-2.92h-7.2l-1.12-1.12V58l1.13-1.12h11.7l18,1.13,18-1.12H654L655.14,58v3.38L654,62.54h-9.67l-6.75,2.25-2.25,4.5v3.38l35.1,105.75,1.13,4.5,1.13-4.5L704.64,76v-4.5L702.39,67l-2.25-2.25-6.75-2.25h-9l-1.12-1.12V58l1.13-1.12H699L712.52,58,726,56.91h11.25L738.39,58v3.38Z"/><path d="M861.47,214.41l-1.12,1.13-5.62-1.12H796.89l-27-1.12-18,1.13H739.07l-1.12-1.12v-3.37l1.13-1.12h9l6.75-2.25,2.25-6.75V71.54l-2.25-6.75-6.75-2.25h-8.55l-1.12-1.12V58l1.13-1.12h12.38l18,1.13,27-1.12h52.88l5.63-1.12,1.13,1.13v40.5l-1.12,2.25h-3.83l-1.12-2.25a40.44,40.44,0,0,0-11-22.39q-8.78-8.89-22.95-11.36H791.72L785,65.91l-2.25,4.5v57.37l1.13,1.13h17.55q8.55-2.47,12.94-8.89t4.39-15.86v-2.25l1.13-1.12h2.92L825,103v11.25l-1.12,18,1.13,18v11.25l-2.25,2.25h-2.92l-1.12-1.12v-2.25q0-18.45-17.33-24.75H783.84l-1.12,1.13v64.13l2.25,4.5,6.75,2.25h27.67q16.2-3.37,26-13.16t12.26-25.09l1.13-2.25h3.83l1.13,2.25Z"/><path d="M983.19,169.41a49.31,49.31,0,0,1-3.83,19.69,43.66,43.66,0,0,1-10.91,15.3,49.65,49.65,0,0,1-16.87,9.9,65.08,65.08,0,0,1-21.94,3.49q-12.6,0-20.81-2.92a43.55,43.55,0,0,1-15.64-10.12h-1.12l-9.67,9.67h-2.7l-1.12-1.12-2.92-51.75,1.13-2.25h3.83l1.8,2.25,3.38,10.13a76.79,76.79,0,0,0,7.42,16.09,60.25,60.25,0,0,0,10,12.49,43.17,43.17,0,0,0,11.7,8A29.89,29.89,0,0,0,927.39,211h2.25q13.95,0,22.72-8.66t8.78-22.84a29,29,0,0,0-8.66-21.15q-8.66-8.77-27.34-15.52-24.08-8.78-34.54-19.8T880.14,95.61A37.38,37.38,0,0,1,884,78.85a40,40,0,0,1,10.69-13.39A50.83,50.83,0,0,1,911,56.69a65.91,65.91,0,0,1,20.92-3.15,49.53,49.53,0,0,1,17.1,3,41.19,41.19,0,0,1,14,8.21h1.13l7.88-7.87h3.38L976.44,58v42.75L975.32,103h-4l-1.58-2.25-4.5-11.92Q960,74.91,951.47,67.6a29.28,29.28,0,0,0-19.58-7.31h-1.58q-13.05,0-20.59,7.65t-7.54,20.48a23.51,23.51,0,0,0,8.21,18.34q8.21,7.32,27.79,13.16Q983.19,133.64,983.19,169.41Z"/><path d="M1117.51,100.79h-2.7l-2.25-2.25q-4.28-28.12-27.67-34.87h-14l-2.25,1.12L1067.56,67V199.79l2.25,6.75,6.75,2.25h11.7l1.13,1.13v3.38l-1.12,1.13h-15.75l-18-1.12-18,1.13h-15.75l-1.12-1.12v-3.37l1.13-1.12h11.7l6.75-2.25,2.25-6.75V67l-1.12-2.25-2.25-1.12h-14q-23.4,6.75-27.67,34.87l-2.25,2.25h-2.7l-1.12-1.12V56.91l1.13-1.12,5.63,1.13h30.38l27,1.13,27-1.12h30.38l5.63-1.12,1.13,1.13V99.66Z"/><path d="M1265.9,169.19A78.29,78.29,0,0,1,1250,194.84a72.32,72.32,0,0,1-24,16.88,73.34,73.34,0,0,1-29.81,6.08,71.89,71.89,0,0,1-28.46-5.51,65.21,65.21,0,0,1-22.39-15.64,72.21,72.21,0,0,1-14.74-24.19,87.9,87.9,0,0,1-5.29-31.16v-6.75a89.16,89.16,0,0,1,5.74-32.4A78.29,78.29,0,0,1,1147,76.49a72.32,72.32,0,0,1,24-16.88,73.31,73.31,0,0,1,29.81-6.08A71.91,71.91,0,0,1,1229.22,59a65.28,65.28,0,0,1,22.39,15.64,72.29,72.29,0,0,1,14.74,24.19,88,88,0,0,1,5.29,31.16v6.75A89.15,89.15,0,0,1,1265.9,169.19Zm-23.51-33.52q0-75.37-43.87-75.37t-43.87,75.37q0,75.38,43.88,75.38T1242.39,135.66Z"/><path d="M1399,97.41a41.18,41.18,0,0,1-4.4,19.12,42.14,42.14,0,0,1-12.3,14.51,58.39,58.39,0,0,1-19.18,9.22,90,90,0,0,1-25,3.26h-18.73l-1.12,1.13v55.13l2.25,6.75,6.75,2.25h11.92l1.13,1.13v3.38l-1.12,1.13h-15.75l-18-1.12-18,1.13H1275l-1.12-1.12v-3.37l1.13-1.12h8.55l6.75-2.25,2.25-6.75V71.54l-2.25-6.75-6.75-2.25H1275l-1.12-1.12V58l1.13-1.12h12.38l18,1.13,27.06-1.12h12q25.48,0,40,10.91T1399,97.41Zm-27.67,2.7a44.51,44.51,0,0,0-2.37-14.85,33.48,33.48,0,0,0-6.78-11.59,29.78,29.78,0,0,0-10.51-7.43,34.42,34.42,0,0,0-13.56-2.59h-10.85l-6.78,2.25-2.26,4.5v65.25l1.13,1.13h14.91q17.62,0,27.34-9.34T1371.31,100.11Z"/><path d="M1527.46,214.41l-1.12,1.13-5.62-1.12h-57.83l-27-1.12-18,1.13h-12.83l-1.12-1.12v-3.37l1.13-1.12h9l6.75-2.25,2.25-6.75V71.54l-2.25-6.75-6.75-2.25h-8.55l-1.12-1.12V58l1.13-1.12h12.38l18,1.13,27-1.12h52.88l5.63-1.12,1.13,1.13v40.5l-1.12,2.25h-3.83l-1.12-2.25a40.44,40.44,0,0,0-11-22.39q-8.78-8.89-23-11.36h-24.75L1451,65.91l-2.25,4.5v57.37l1.13,1.13h17.55q8.55-2.47,12.94-8.89t4.39-15.86v-2.25l1.13-1.12h2.92L1491,103v11.25l-1.12,18,1.13,18v11.25l-2.25,2.25h-2.92l-1.12-1.12v-2.25q0-18.45-17.33-24.75h-17.55l-1.12,1.13v64.13l2.25,4.5,6.75,2.25h27.67q16.2-3.37,26-13.16t12.26-25.09l1.13-2.25h3.83l1.13,2.25Z"/><path d="M1683.6,166.6a80.7,80.7,0,0,1-16,24.75,76,76,0,0,1-23.51,16.88,67.52,67.52,0,0,1-28.69,6.19h-15.3l-27-1.12-18,1.13H1542.3l-1.12-1.12v-3.37l1.13-1.12h9l6.75-2.25,2.25-6.75V71.54l-2.25-6.75-6.75-2.25h-8.55l-1.12-1.12V58l1.13-1.12h12.38l18,1.13,27-1.12h15.3A78.12,78.12,0,0,1,1645,62.42a70.91,70.91,0,0,1,23.51,15.3,69.36,69.36,0,0,1,15.41,23.17,75.82,75.82,0,0,1,5.51,29.14v6.75A76.84,76.84,0,0,1,1683.6,166.6Zm-22.72-30.94q0-34.2-13.72-53.1T1608,63.66h-12.37l-6.75,2.25-2.25,4.5v130.5l2.25,4.5,6.75,2.25H1608q25.42,0,39.15-18.9T1660.88,135.66Z"/><path d="M1758.3,214.41h-14.17l-18-1.12-18,1.13h-14l-1.12-1.12v-3.37l1.13-1.12h10.13l6.75-2.25,2.25-6.75V71.54l-2.25-6.75-6.75-2.25h-9.67l-1.12-1.12V58l1.13-1.12h13.5l18,1.13,18-1.12h13.5l1.13,1.13v3.38l-1.12,1.13H1748l-6.75,2.25L1739,71.54V199.79l2.25,6.75,6.75,2.25h10.35l1.13,1.13v3.38Z"/><path d="M1914.68,214.41h-11.92l-18-1.12-18,1.13h-16.2l-1.12-1.12v-3.37l1.13-1.12h8.33l6.75-2.25,2.25-2.25,1.13-4.5v-3.37L1856.63,160l-2.25-1.35h-52.2l-2.25,1.35-10.8,32.4v6.3l2.25,4.5,3.38,3.38,6.75,2.25h6.3l1.13,1.13v3.38l-1.12,1.13h-14.17l-13.5-1.12-13.5,1.13h-9l-1.12-1.12v-3.37l1.13-1.12h5.63l6.75-3.37,5.63-5.62L1779,193l47.25-132.75L1828.5,58l8.33-1.12,8.55-2.25,2.25,2.25,49.5,142.87,4.5,6.75,6.75,2.25h6.3l1.13,1.13v3.38Zm-85-132.3L1828.05,76l-1.8,6.08-23.17,68.62,1.13.67h47.92l1.13-.67Z"/><path d="M185.76,214.41H171.59l-18-1.12-18,1.13h-14l-1.12-1.12v-3.37l1.13-1.12h10.13l6.75-2.25,2.25-6.75V71.54l-2.25-6.75-6.75-2.25h-9.67L121,61.41V58l1.13-1.12h13.5l18,1.13,18-1.12h13.5L186.21,58v3.38l-1.12,1.13h-9.67l-6.75,2.25-2.25,6.75V199.79l2.25,6.75,6.75,2.25h10.35l1.13,1.13v3.38Z"/><path class="cls-1" d="M104.17,0a141.36,141.36,0,0,0,0,272.76A282.13,282.13,0,0,1,104.17,0Z"/><path class="cls-2" d="M203,0a141.36,141.36,0,0,1,0,272.76,280.56,280.56,0,0,0,35.15-136.38A280.56,280.56,0,0,0,203,0Z"/></g></g></svg>