<svg id="Layer_1" data-name="Layer 1" xmlns="http://www.w3.org/2000/svg" viewBox="0 0 61.73 61.73"><defs><style>.cls-1{fill:#333;}</style></defs><title>profile</title><path class="cls-1" d="M70.51,67.4a24.43,24.43,0,0,0-13.3-10.28,12.06,12.06,0,1,0-14.69,0A24.46,24.46,0,0,0,29.22,67.4a27.12,27.12,0,1,1,41.29,0M41.56,47.63a8.31,8.31,0,1,1,8.31,8.3,8.31,8.31,0,0,1-8.31-8.3M49.87,77a27,27,0,0,1-18-6.89c.05-.06.12-.09.16-.16a20.66,20.66,0,0,1,35.69,0c0,.07.1.11.15.18a27,27,0,0,1-18,6.88m0-58A30.87,30.87,0,1,0,80.73,49.87,30.91,30.91,0,0,0,49.87,19" transform="translate(-19 -19)"/></svg>
