<svg id="Layer_1" data-name="Layer 1" xmlns="http://www.w3.org/2000/svg" viewBox="0 0 484.03 483.89"><title>search</title><path d="M0,186.79C1.13,91.61,65.62,19.49,149.71,3.28c100.38-19.38,198.57,48.87,215,149.62C373,203.45,362,249.69,332.2,291.34c-2.93,4.1-2.67,6.28.79,9.73q70.11,69.82,140,139.83c1.72,1.72,3.49,3.4,5.08,5.22,8.48,9.69,8,21.39-1.22,30.56s-20.87,9.62-30.56,1.11c-1.68-1.48-3.24-3.1-4.82-4.68Q371.67,403.38,302,333.54c-4.21-4.24-6.76-4.22-11.49-.84A181.94,181.94,0,0,1,191.44,367c-92,4.31-175-62.06-189.17-156.23C1,201.9.57,192.9,0,186.79Zm35.84-3.25A147.12,147.12,0,0,0,181.93,331.7h.64C265.22,332.21,330.91,267.15,332,185c1.08-81.5-65.79-148.63-146.3-149.5C103,34.57,34.91,102.14,35.84,183.54Z" transform="translate(-0.03 0.01)"/></svg>