<svg id="Layer_1" data-name="Layer 1" xmlns="http://www.w3.org/2000/svg" width="484.06" height="483.9" viewBox="0 0 484.06 483.9"><title>search</title><path d="M9,193.89C10.1,98.71,74.59,26.59,158.68,10.38,259.06-9,357.25,59.25,373.71,160c8.25,50.55-2.79,96.79-32.54,138.44-2.93,4.1-2.67,6.28.79,9.73Q412.07,378,481.91,448c1.72,1.72,3.49,3.4,5.08,5.22,8.48,9.69,8,21.39-1.22,30.56s-20.87,9.62-30.56,1.11c-1.68-1.48-3.24-3.1-4.82-4.68Q380.64,410.48,311,340.64c-4.21-4.24-6.76-4.22-11.49-.84a181.87,181.87,0,0,1-99.1,34.27c-92,4.31-175-62.06-189.17-156.23C9.92,209,9.54,200,9,193.89Zm35.84-3.25A147.11,147.11,0,0,0,191.54,338.8c82.65.51,148.34-64.55,149.43-146.73,1.08-81.5-65.79-148.63-146.3-149.5C112,41.67,43.88,109.24,44.81,190.64Z" transform="translate(-8.97 -7.1)"/></svg>